- 
http://www.torrentkit.com        thanks for supporting with server cost,  
http://www.torrentkit.com       the fast  and The Hottest Private Tracker on the net

Please Seed back to make the speed Faster!!!

and don't forget to visit      ...... www.torrentkit.com..........
-[img]http://img837.imageshack.us/img837/8342/burke.jpg[/img]

[color=blue][size=5][b]Burke and Hare 2010 BDRip XVID AC3 HQ Hive-CM8[/b][/size][/color]



[b]Thx Hive

CM8 Doing It Right The First Time :D

Why download a touched up rip of a rip BRrip
Get the real deal BDRip
Enjoy

Source UK Bluray

Video: 720x304 @bitrate 1800 2pass
Audio: DTS to AC3 5.1 @448
Sample: yes included
Subs: yes english in srt /subs[/b]
 
http://www.imdb.com/title/tt1320239/


General
Complete name                    : Burke.and.Hare.2010.BDRip.XVID.AC3.HQ.Hive-CM8.avi
Format                           : AVI
Format/Info                      : Audio Video Interleave
File size                        : 1.46 GiB
Duration                         : 1h 31mn
Overall bit rate                 : 2 281 Kbps
Writing application              : Nandub v1.0rc2
Writing library                  : Nandub build 1853/release

Video
ID                               : 0
Format                           : MPEG-4 Visual
Format profile                   : Advanced Simple@L5
Format settings, BVOP            : Yes
Format settings, QPel            : Yes
Format settings, GMC             : No warppoints
Format settings, Matrix          : Default (H.263)
Muxing mode                      : Packed bitstream
Codec ID                         : XVID
Codec ID/Hint                    : XviD
Duration                         : 1h 31mn
Bit rate                         : 1 824 Kbps
Width                            : 720 pixels
Height                           : 304 pixels
Display aspect ratio             : 2.40:1
Frame rate                       : 24.000 fps
Color space                      : YUV
Chroma subsampling               : 4:2:0
Bit depth                        : 8 bits
Scan type                        : Progressive
Bits/(Pixel*Frame)               : 0.347
Stream size                      : 1.17 GiB (80%)
Writing library                  : XviD 1.2.1 (UTC 2008-12-04)

Audio
ID                               : 1
Format                           : AC-3
Format/Info                      : Audio Coding 3
Mode extension                   : CM (complete main)
Codec ID                         : 2000
Duration                         : 1h 31mn
Bit rate mode                    : Constant
Bit rate                         : 448 Kbps
Channel(s)                       : 6 channels
Channel positions                : Front: L C R, Side: L R, LFE
Sampling rate                    : 48.0 KHz
Bit depth                        : 16 bits
Stream size                      : 293 MiB (20%)
Alignment                        : Split accross interleaves
Interleave, duration             : 42 ms (1.00 video frame)
Interleave, preload duration     : 500 ms


Simon Pegg         : William Burke  
Isla Fisher        : Ginny  
Christopher Lee    : Old Joseph  
Tim Curry          : Dr. Monroe  
Andy Serkis        : William Hare  
Tom Wilkinson      : Dr. Knox  
Stephen Merchant   : Footman  
Hugh Bonneville    : Lord Harrington 



A black comedy about two 19th century grave robbers who find a lucrative
business providing cadavers for an Edinburgh medical school.  



[img]http://img190.imageshack.us/img190/6692/bubua.png[/img]
[img]http://img37.imageshack.us/img37/4483/55554987.png[/img]
[img]http://img834.imageshack.us/img834/3600/bubbubububuu.png[/img]
[img]http://img208.imageshack.us/img208/9854/bubbubububuubu.png[/img]
[img]http://img814.imageshack.us/img814/8316/bubbububuu.png[/img]
[img]http://img839.imageshack.us/img839/898/bubbububuubu.png[/img]
[img]http://img197.imageshack.us/img197/7346/bubbubuu.png[/img]
[img]http://img717.imageshack.us/img717/9301/bubbuu.png[/img]





Greetz

iNK,LUSi,,MAGNET,CLASSiFiED,THC,LEGi0N,T0XiC,IMAGiNE,ViSiON,WBZ,FLAWL3SS,NOVA
Vik,Rapeseed,D2U,SAFC,goldadvance,MEMORY100,KaN1vE,Unevano,Pinnz,Wayne,Mr Hive
and all P2P groups 
Great Work Guys :D


CM8@hushmail.com